<?xml version="1.0" encoding="UTF-8"?>
<svg width="69px" height="55px" viewBox="0 0 69 55" version="1.1" xmlns="http://www.w3.org/2000/svg" xmlns:xlink="http://www.w3.org/1999/xlink">
    <!-- Generator: Sketch 42 (36781) - http://www.bohemiancoding.com/sketch -->
    <title>Artboard Copy</title>
    <desc>Created with Sketch.</desc>
    <defs>
        <rect id="path-1" x="28" y="10" width="21" height="27"></rect>
        <mask id="mask-2" maskContentUnits="userSpaceOnUse" maskUnits="objectBoundingBox" x="0" y="0" width="21" height="27" fill="white">
            <use xlink:href="#path-1"></use>
        </mask>
        <rect id="path-3" x="22" y="16" width="21" height="27"></rect>
        <mask id="mask-4" maskContentUnits="userSpaceOnUse" maskUnits="objectBoundingBox" x="0" y="0" width="21" height="27" fill="white">
            <use xlink:href="#path-3"></use>
        </mask>
    </defs>
    <g id="Page-1" stroke="none" stroke-width="1" fill="none" fill-rule="evenodd">
        <g id="Artboard-Copy">
            <rect id="Rectangle-2" fill="#3D5D77" x="0" y="0" width="69" height="55"></rect>
            <use id="Rectangle" stroke="#FFFFFF" mask="url(#mask-2)" stroke-width="2" opacity="0.4" xlink:href="#path-1"></use>
            <rect id="Rectangle" fill="#3D5D77" x="22" y="16" width="21" height="27"></rect>
            <use id="Rectangle" stroke="#FFFFFF" mask="url(#mask-4)" stroke-width="2" opacity="0.4" xlink:href="#path-3"></use>
            <g id="search" transform="translate(32.500000, 30.500000) scale(-1, 1) translate(-32.500000, -30.500000) translate(19.000000, 17.000000)" fill-rule="nonzero" fill="#FFFFFF">
                <g id="Shape">
                    <path d="M25.371,22.2807273 L19.1691818,17.0059091 C18.5277273,16.4290909 17.8420909,16.164 17.2881818,16.1893636 C18.7519091,14.4744545 19.6363636,12.2498182 19.6363636,9.81818182 C19.6363636,4.39609091 15.2402727,0 9.81818182,0 C4.39609091,0 0,4.39609091 0,9.81818182 C0,15.2402727 4.39609091,19.6363636 9.81818182,19.6363636 C12.2498182,19.6363636 14.4744545,18.7519091 16.1893636,17.2881818 C16.164,17.8420909 16.4290909,18.5277273 17.0059091,19.1691818 L22.2807273,25.371 C23.184,26.3740909 24.6591818,26.4591818 25.5591818,25.5591818 C26.4591818,24.6591818 26.3749091,23.184 25.371,22.2807273 Z M9.819,16.3644545 C6.20427273,16.3644545 3.27354545,13.4337273 3.27354545,9.819 C3.27354545,6.20427273 6.20427273,3.27354545 9.819,3.27354545 C13.4337273,3.27354545 16.3644545,6.20427273 16.3644545,9.819 C16.3644545,13.4337273 13.4337273,16.3644545 9.819,16.3644545 Z"></path>
                </g>
            </g>
        </g>
    </g>
</svg>